<svg width="18" height="18" viewBox="0 0 18 18" fill="none" xmlns="http://www.w3.org/2000/svg">
<rect width="18" height="18" rx="2" fill="#00C0F5"/>
<path d="M6.67656 4.31299V6.84514H9.84718V9.16535H6.67656V18H4.33795V9.16535H3V6.84514H4.33795V4.31299C4.33795 3.70319 4.48787 3.14917 4.78769 2.65092C5.08751 2.14523 5.48852 1.74366 5.99072 1.44619C6.50042 1.14873 7.06633 1 7.68846 1C8.13819 1 8.57668 1.08924 9.00393 1.26772C9.43117 1.44619 9.81345 1.72135 10.1507 2.09318L8.47549 3.73294C8.39304 3.59908 8.27686 3.49869 8.12695 3.43176C7.98454 3.35739 7.83837 3.32021 7.68846 3.32021C7.41113 3.32021 7.17127 3.41688 6.96889 3.61024C6.774 3.80359 6.67656 4.03784 6.67656 4.31299Z" fill="white"/>
<path d="M11.5827 6.84514H13.9213V18H11.5827V6.84514ZM12.7745 5.22769C12.4147 5.22769 12.1149 5.11242 11.875 4.88189C11.6352 4.65136 11.5152 4.36133 11.5152 4.01181C11.5152 3.66973 11.6352 3.38342 11.875 3.15289C12.1149 2.91492 12.4109 2.79593 12.7632 2.79593C13.108 2.79593 13.4004 2.91492 13.6402 3.15289C13.8801 3.38342 14 3.66973 14 4.01181C14 4.36133 13.8801 4.65136 13.6402 4.88189C13.4079 5.11242 13.1193 5.22769 12.7745 5.22769Z" fill="white"/>
</svg>
